Coordinates
version=1
nRows=6
nColumns=63
inDegrees=yes

Units are S.I. units (second, meters, Newtons, ...)
If the header above contains a line with 'inDegrees', this indicates whether rotational values are in degrees (yes) or radians (no).

endheader
time	pelvis_tilt	pelvis_list	pelvis_rotation	pelvis_tx	pelvis_ty	pelvis_tz	hip_flexion_r	hip_adduction_r	hip_rotation_r	knee_angle_r	knee_angle_r_beta	ankle_angle_r	subtalar_angle_r	mtp_angle_r	hip_flexion_l	hip_adduction_l	hip_rotation_l	knee_angle_l	knee_angle_l_beta	ankle_angle_l	subtalar_angle_l	mtp_angle_l	L5_S1_Flex_Ext	L5_S1_Lat_Bending	L5_S1_axial_rotation	L4_L5_Flex_Ext	L4_L5_Lat_Bending	L4_L5_axial_rotation	L3_L4_Flex_Ext	L3_L4_Lat_Bending	L3_L4_axial_rotation	L2_L3_Flex_Ext	L2_L3_Lat_Bending	L2_L3_axial_rotation	L1_L2_Flex_Ext	L1_L2_Lat_Bending	L1_L2_axial_rotation	L1_T12_Flex_Ext	L1_T12_Lat_Bending	L1_T12_axial_rotation	Abs_r3	Abs_r2	Abs_r1	Abs_t1	Abs_t2	neck_flexion	neck_bending	neck_rotation	arm_flex_r	arm_add_r	arm_rot_r	elbow_flex_r	pro_sup_r	wrist_flex_r	wrist_dev_r	arm_flex_l	arm_add_l	arm_rot_l	elbow_flex_l	pro_sup_l	wrist_flex_l	wrist_dev_l
1.271186	3.465913	-6.302439	98.409630	0.084863	1.082254	0.038907	5.753022	-0.905199	-5.237378	13.507832	0.235756	32.411061	-4.145230	0.000000	1.202911	1.274090	13.707680	0.763281	0.013322	27.786615	-4.009913	0.000000	0.099401	0.053584	-1.749633	0.184599	0.071266	-1.858985	0.163307	0.130283	-1.858985	0.113606	0.130283	-1.530929	0.092304	0.109268	-1.421577	0.056798	0.083001	-1.312225	0.710015	0.606150	-9.730935	0.000000	0.000000	22.349366	-4.254502	-1.425338	6.378406	-7.655892	39.044134	49.326721	57.214857	-8.285348	24.642100	13.627885	-3.803638	52.420375	46.672808	77.338057	3.571115	24.089514
1.288136	3.420256	-6.362054	98.103199	0.085193	1.081912	0.039100	5.887601	-0.902104	-4.678824	13.577518	0.236972	32.330962	-4.579026	0.000000	1.275373	1.340737	13.636437	0.733816	0.012808	27.970007	-4.106593	0.000000	0.099576	0.043241	-1.708963	0.184923	0.057511	-1.815773	0.163594	0.105137	-1.815773	0.113806	0.105137	-1.495342	0.092466	0.088177	-1.388532	0.056898	0.066981	-1.281722	0.711262	0.489153	-9.504738	0.000000	0.000000	22.162571	-4.397798	-1.828196	6.516550	-7.600796	38.929806	49.514399	58.499744	-7.666581	24.145922	13.557610	-3.872355	51.847725	46.903386	78.801798	3.763038	23.694819
1.305085	3.385568	-6.402922	97.812945	0.085532	1.081588	0.039216	6.014215	-0.892723	-4.189734	13.680084	0.238763	32.290499	-4.931676	0.000000	1.325908	1.388341	13.441467	0.706414	0.012329	28.197568	-4.021297	0.000000	0.098725	0.033355	-1.670360	0.183343	0.044363	-1.774758	0.162196	0.081100	-1.774758	0.112833	0.081100	-1.461565	0.091676	0.068018	-1.357168	0.056412	0.051667	-1.252770	0.705186	0.377322	-9.290043	0.000000	0.000000	21.958290	-4.544919	-2.267617	6.710086	-7.523716	38.699317	49.754371	59.943546	-7.197112	23.455623	13.603442	-3.923425	51.809723	46.798971	80.183015	3.658266	22.653372
1.322034	3.366888	-6.424308	97.548513	0.085882	1.081295	0.039196	6.123876	-0.870039	-3.771447	13.808643	0.241006	32.289331	-5.209329	0.000000	1.345857	1.412857	13.462879	0.674750	0.011777	28.365542	-4.232650	0.000000	0.097518	0.024151	-1.635342	0.181102	0.032121	-1.737551	0.160213	0.058721	-1.737551	0.111454	0.058721	-1.430924	0.090556	0.049249	-1.328715	0.055722	0.037410	-1.226507	0.696565	0.273201	-9.095282	0.000000	0.000000	21.750988	-4.682619	-2.738276	6.904905	-7.423035	38.252033	50.094229	61.507530	-6.849285	22.543433	13.705915	-3.955283	52.182094	46.319221	81.649165	3.232531	20.910862
1.338983	3.349158	-6.424475	97.302933	0.086245	1.081056	0.039062	6.214073	-0.851727	-3.426705	13.963034	0.243701	32.334145	-5.394430	0.000000	1.333816	1.428857	13.538729	0.644314	0.011245	28.501820	-4.527608	0.000000	0.094961	0.013967	-1.605799	0.176353	0.018576	-1.706161	0.156012	0.033960	-1.706161	0.108531	0.033960	-1.405074	0.088181	0.028482	-1.304712	0.054261	0.021635	-1.204349	0.678300	0.158001	-8.930971	0.000000	0.000000	21.556643	-4.785415	-3.204779	7.093914	-7.318379	37.593154	50.552012	63.333213	-6.731267	21.366318	13.806276	-3.986910	52.727480	45.508181	83.079611	2.584600	18.559479
1.355932	3.330432	-6.407270	97.076633	0.086616	1.080885	0.038827	6.287696	-0.844843	-3.189229	14.142331	0.246830	32.424467	-5.441888	0.000000	1.293774	1.437918	13.524740	0.617535	0.010778	28.631900	-4.711156	0.000000	0.091305	0.002533	-1.582011	0.169563	0.003370	-1.680887	0.150006	0.006160	-1.680887	0.104353	0.006160	-1.384260	0.084786	0.005166	-1.285384	0.052172	0.003924	-1.186508	0.652185	0.028659	-8.798672	0.000000	0.000000	21.378502	-4.837519	-3.654889	7.247892	-7.234084	36.738190	51.142755	65.365876	-6.940687	19.845330	13.874818	-4.036299	53.352535	44.436711	84.166258	1.670434	15.711186
